<mxfile host="app.diagrams.net" modified="2023-10-02T06:15:22.409Z" agent="Mozilla/5.0 (Windows NT 10.0; Win64; x64) AppleWebKit/537.36 (KHTML, like Gecko) Chrome/117.0.0.0 Safari/537.36" version="22.0.0" etag="ORhD1TXISMDFm0UzPDse" type="github">
  <diagram name="Page-1" id="fhtUjVtqZ9_bUFBRk7mS">
    <mxGraphModel>
      <root>
        <mxCell id="0" />
        <mxCell id="1" parent="0" />
      </root>
    </mxGraphModel>
  </diagram>
</mxfile>
